<svg xmlns="http://www.w3.org/2000/svg" xmlns:xlink="http://www.w3.org/1999/xlink" fill="none" version="1.1" width="18" height="18" viewBox="0 0 18 18"><defs><clipPath id="master_svg0_349_72551"><rect x="0" y="0" width="18" height="18" rx="0"/></clipPath></defs><g clip-path="url(#master_svg0_349_72551)"><g><path d="M15.000002,12.375L16.5,12.375L16.5,13.875L1.5,13.875L1.5,12.375L3,12.375L3,7.125C3,3.8112898,5.6862898,1.125,9,1.125C12.313725,1.125,15.000002,3.8112898,15.000002,7.125L15.000002,12.375ZM13.5,12.375L13.5,7.125C13.5,4.6397176,11.4852753,2.625,9,2.625C6.5147171,2.625,4.5,4.6397176,4.5,7.125L4.5,12.375L13.5,12.375ZM6.75,15.375L11.25,15.375L11.25,16.875002000000002L6.75,16.875002000000002L6.75,15.375Z" fill="#1678FF" fill-opacity="1"/></g></g></svg>